<?xml version="1.0" encoding="utf-8"?>
<!-- Generator: Adobe Illustrator 21.0.0, SVG Export Plug-In . SVG Version: 6.00 Build 0)  -->
<svg version="1.1" id="Layer_1" xmlns="http://www.w3.org/2000/svg" xmlns:xlink="http://www.w3.org/1999/xlink" x="0px" y="0px"
	 viewBox="0 0 600 600" style="enable-background:new 0 0 600 600;" xml:space="preserve">
<style type="text/css">
	.st0{fill:#FFFFFF;}
</style>
<g>
	<path class="st0" d="M326.3,411.6c0,36.5,14.3,70.9,40.1,96.8c25.8,25.8,60.2,40.1,96.8,40.1s70.9-14.3,96.8-40.1
		c25.9-25.8,40.1-60.2,40.1-96.8c0-22.1-5.4-44-15.6-63.5l-93.3-191.6h15.6c8.7,0,15.8-7.1,15.8-15.8v-26.4
		c0-8.7-7.1-15.8-15.8-15.8H387.6c-2.9-26.2-42-47-89.8-47c-47.8,0-86.9,20.8-89.8,47H88.9c-8.7,0-15.8,7.1-15.8,15.8v26.4
		c0,8.7,7.1,15.8,15.8,15.8h20L15.6,348.2C5.4,367.6,0,389.6,0,411.6c0,36.5,14.3,70.9,40.1,96.8c25.8,25.8,60.2,40.1,96.8,40.1
		s70.9-14.3,96.8-40.1c25.9-25.8,40.2-60.2,40.2-96.8c0-22.1-5.4-44-15.6-63.5l-93.4-191.6h270.3l-93.4,191.6
		C331.6,367.6,326.3,389.6,326.3,411.6L326.3,411.6z M224.2,365.1l0.3,0.6c7.5,14.3,11.3,29.8,11.3,46H38c0-16.3,3.8-31.7,11.3-46
		l0.1-0.3L136.9,186L224.2,365.1z M375.6,365.6l0.1-0.3L463.1,186l87.3,179.1l0.3,0.6c7.5,14.3,11.3,29.8,11.3,46H364.3
		C364.3,395.4,368.1,379.9,375.6,365.6L375.6,365.6z M375.6,365.6"/>
</g>
</svg>
